<svg width="130" height="130" viewBox="0 0 130 130" fill="none" xmlns="http://www.w3.org/2000/svg">
<circle cx="65" cy="65" r="64" fill="#101010" stroke="#9466FF"/>
<path d="M43.5586 80H53.6133L69.1172 28.8125H58.2188L49.5 62.2109L48.5508 65.6914L47.6719 62.2461L38.9883 28.8125H28.0898L43.5586 80Z" fill="#F5F5F5"/>
<path d="M91.1836 92.6406C91.1836 93.5547 90.9961 94.3984 90.6211 95.1719C90.2461 95.9219 89.707 96.5664 89.0039 97.1055C88.3008 97.6445 87.4336 98.0664 86.4023 98.3711C85.3945 98.6758 84.2344 98.8281 82.9219 98.8281C81.4453 98.8281 80.0859 98.6641 78.8438 98.3359C77.625 98.0078 76.582 97.4922 75.7148 96.7891C74.8242 96.0859 74.1328 95.1836 73.6406 94.082C73.1484 92.9805 72.8789 91.6562 72.832 90.1094H63.1289C63.1289 92.7578 63.6328 95.0664 64.6406 97.0352C65.6719 99.0039 67.0664 100.715 68.8242 102.168C70.6758 103.645 72.8438 104.77 75.3281 105.543C77.8359 106.293 80.3672 106.668 82.9219 106.668C85.5234 106.668 87.9258 106.363 90.1289 105.754C92.332 105.121 94.2305 104.195 95.8242 102.977C97.418 101.781 98.6602 100.316 99.5508 98.582C100.465 96.8242 100.922 94.8203 100.922 92.5703C100.922 89.9688 100.324 87.6719 99.1289 85.6797C97.9336 83.6875 96.3281 81.9414 94.3125 80.4414C92.9766 79.5273 91.5117 78.7188 89.918 78.0156C88.3242 77.3125 86.6484 76.7148 84.8906 76.2227C83.25 75.7773 81.7734 75.2969 80.4609 74.7812C79.1719 74.2656 78.0703 73.6914 77.1562 73.0586C76.2422 72.4492 75.5391 71.7578 75.0469 70.9844C74.5781 70.2109 74.3438 69.3438 74.3438 68.3828C74.3438 67.4688 74.5195 66.625 74.8711 65.8516C75.2461 65.0547 75.7852 64.3633 76.4883 63.7773C77.1914 63.2148 78.0469 62.7812 79.0547 62.4766C80.0859 62.1484 81.2578 61.9844 82.5703 61.9844C84 61.9844 85.2422 62.1836 86.2969 62.582C87.375 62.957 88.2773 63.4844 89.0039 64.1641C89.707 64.8672 90.2344 65.6992 90.5859 66.6602C90.9609 67.6211 91.1719 68.6758 91.2188 69.8242H100.852C100.852 67.5273 100.406 65.418 99.5156 63.4961C98.625 61.5742 97.3828 59.9102 95.7891 58.5039C94.1953 57.1211 92.2852 56.043 90.0586 55.2695C87.8555 54.4961 85.418 54.1094 82.7461 54.1094C80.168 54.1094 77.7773 54.4492 75.5742 55.1289C73.3711 55.7852 71.4609 56.7344 69.8438 57.9766C68.2266 59.2188 66.9609 60.7188 66.0469 62.4766C65.1328 64.2344 64.6758 66.1914 64.6758 68.3477C64.6758 70.2227 65.0156 71.957 65.6953 73.5508C66.3984 75.1445 67.4297 76.5977 68.7891 77.9102C70.1484 79.2227 71.8945 80.4297 74.0273 81.5312C76.1836 82.6328 78.6797 83.5703 81.5156 84.3438C83.3438 84.8359 84.8672 85.375 86.0859 85.9609C87.3281 86.5234 88.3359 87.1445 89.1094 87.8242C89.8594 88.5273 90.3867 89.2773 90.6914 90.0742C91.0195 90.8711 91.1836 91.7266 91.1836 92.6406Z" fill="#F5F5F5"/>
</svg>
