<svg width="1920" height="3228" viewBox="0 0 1920 3228" fill="none" xmlns="http://www.w3.org/2000/svg">
<g filter="url(#filter0_f)">
<path fill-rule="evenodd" clip-rule="evenodd" d="M-55.4991 3128.5L-97 3529C-97 3529 3752.5 4143 1963 2774C2016.27 3049.67 1248.66 3175.89 407.822 3154.78C67.4276 3136.36 -17.9992 3071.5 -17.9992 3071.5L-17.9992 3131.73C-30.5114 3130.69 -43.0122 3129.61 -55.4991 3128.5Z" fill="#9466FF"/>
</g>
<g filter="url(#filter1_f)">
<path fill-rule="evenodd" clip-rule="evenodd" d="M-141.133 1029.11C-306.204 1012.46 -466.501 989.812 -614.674 959.5C-898.236 959.5 -1143.25 1097.25 -1326.37 1200.21C-1547.16 1324.34 -1678 1397.9 -1678 1118.5C-1678 607.36 -1442.44 310.5 -817 310.5C-547.896 310.5 -270.161 427.315 63.5439 567.671C438.635 725.434 884.44 912.939 1468.19 997.727C1735.66 985.814 2064.08 925.347 2236.97 720.001C2396.42 1454.76 1620.22 1371.57 885.25 1292.8C472.392 1248.55 72.546 1205.69 -141.132 1310L-141.133 1029.11Z" fill="#9466FF"/>
</g>
<defs>
<filter id="filter0_f" x="-347" y="2524" width="3034.42" height="1392.28" filterUnits="userSpaceOnUse" color-interpolation-filters="sRGB">
<feFlood flood-opacity="0" result="BackgroundImageFix"/>
<feBlend mode="normal" in="SourceGraphic" in2="BackgroundImageFix" result="shape"/>
<feGaussianBlur stdDeviation="125" result="effect1_foregroundBlur"/>
</filter>
<filter id="filter1_f" x="-1928" y="60.5" width="4436" height="1532.35" filterUnits="userSpaceOnUse" color-interpolation-filters="sRGB">
<feFlood flood-opacity="0" result="BackgroundImageFix"/>
<feBlend mode="normal" in="SourceGraphic" in2="BackgroundImageFix" result="shape"/>
<feGaussianBlur stdDeviation="125" result="effect1_foregroundBlur"/>
</filter>
</defs>
</svg>
