<svg width="1920" height="1533" viewBox="0 0 1920 1533" fill="none" xmlns="http://www.w3.org/2000/svg">
<g filter="url(#filter0_f)">
<path fill-rule="evenodd" clip-rule="evenodd" d="M-141.133 969.106C-306.204 952.465 -466.501 929.812 -614.674 899.5C-898.236 899.5 -1143.25 1037.25 -1326.37 1140.21C-1547.16 1264.34 -1678 1337.9 -1678 1058.5C-1678 547.36 -1442.44 250.5 -817 250.5C-547.896 250.5 -270.161 367.315 63.5439 507.671C438.635 665.434 884.44 852.939 1468.19 937.727C1735.66 925.814 2064.08 865.347 2236.97 660.001C2396.42 1394.76 1620.22 1311.57 885.25 1232.8C472.392 1188.55 72.546 1145.69 -141.132 1250L-141.133 969.106Z" fill="#9466FF"/>
</g>
<defs>
<filter id="filter0_f" x="-1928" y="0.5" width="4436" height="1532.35" filterUnits="userSpaceOnUse" color-interpolation-filters="sRGB">
<feFlood flood-opacity="0" result="BackgroundImageFix"/>
<feBlend mode="normal" in="SourceGraphic" in2="BackgroundImageFix" result="shape"/>
<feGaussianBlur stdDeviation="125" result="effect1_foregroundBlur"/>
</filter>
</defs>
</svg>
